<?xml version="1.0" encoding="UTF-8"?>
<!DOCTYPE svg PUBLIC "-//W3C//DTD SVG 1.1//EN" "http://www.w3.org/Graphics/SVG/1.1/DTD/svg11.dtd">
<svg xmlns="http://www.w3.org/2000/svg" version="1.1" width="32px" height="32px" style="shape-rendering:geometricPrecision; text-rendering:geometricPrecision; image-rendering:optimizeQuality; fill-rule:evenodd; clip-rule:evenodd" xmlns:xlink="http://www.w3.org/1999/xlink">
<g><path style="opacity:0.796" fill="#6c4a31" d="M 3.5,-0.5 C 6.83333,-0.5 10.1667,-0.5 13.5,-0.5C 13.5,0.833333 14.1667,1.5 15.5,1.5C 15.5,1.83333 15.5,2.16667 15.5,2.5C 11.5483,1.72791 7.5483,1.39458 3.5,1.5C 3.5,2.5 3.5,3.5 3.5,4.5C 3.5,7.5 3.5,10.5 3.5,13.5C 1.08824,13.6941 0.0882357,15.0274 0.5,17.5C 1.5,17.5 2.5,17.5 3.5,17.5C 3.5,20.5 3.5,23.5 3.5,26.5C 3.5,27.5 3.5,28.5 3.5,29.5C 3.5,29.8333 3.5,30.1667 3.5,30.5C 2.54885,29.0813 2.21552,27.4147 2.5,25.5C 1.5,25.5 0.5,25.5 -0.5,25.5C -0.5,23.8333 -0.5,22.1667 -0.5,20.5C -0.166667,20.5 0.166667,20.5 0.5,20.5C 0.67158,19.5084 0.338246,18.8417 -0.5,18.5C -0.5,16.8333 -0.5,15.1667 -0.5,13.5C 0.458367,13.0472 1.2917,12.3805 2,11.5C 2.23323,7.41549 2.73323,3.41549 3.5,-0.5 Z"/></g>
<g><path style="opacity:0.984" fill="#e09d5d" d="M 15.5,2.5 C 19.9707,1.91057 23.9707,2.57723 27.5,4.5C 23.8333,4.5 20.1667,4.5 16.5,4.5C 15.5,4.5 14.5,4.5 13.5,4.5C 13.1667,4.5 12.8333,4.5 12.5,4.5C 9.5,4.5 6.5,4.5 3.5,4.5C 3.5,3.5 3.5,2.5 3.5,1.5C 7.5483,1.39458 11.5483,1.72791 15.5,2.5 Z"/></g>
<g><path style="opacity:1" fill="#f4f1f0" d="M 3.5,4.5 C 6.5,4.5 9.5,4.5 12.5,4.5C 12.81,7.7131 12.4767,10.7131 11.5,13.5C 9.16667,10.8333 6.83333,10.8333 4.5,13.5C 4.16667,13.5 3.83333,13.5 3.5,13.5C 3.5,10.5 3.5,7.5 3.5,4.5 Z"/></g>
<g><path style="opacity:1" fill="#cec5b9" d="M 13.5,4.5 C 14.5,4.5 15.5,4.5 16.5,4.5C 16.8314,11.6814 16.8314,19.0147 16.5,26.5C 15.5,26.5 14.5,26.5 13.5,26.5C 13.5,19.1667 13.5,11.8333 13.5,4.5 Z"/></g>
<g><path style="opacity:1" fill="#eee6e1" d="M 16.5,4.5 C 20.1667,4.5 23.8333,4.5 27.5,4.5C 27.5,11.8333 27.5,19.1667 27.5,26.5C 23.8333,26.5 20.1667,26.5 16.5,26.5C 16.8314,19.0147 16.8314,11.6814 16.5,4.5 Z"/></g>
<g><path style="opacity:1" fill="#ab8b6b" d="M 12.5,4.5 C 12.8333,4.5 13.1667,4.5 13.5,4.5C 13.5,11.8333 13.5,19.1667 13.5,26.5C 13.1667,26.5 12.8333,26.5 12.5,26.5C 12.81,23.2869 12.4767,20.2869 11.5,17.5C 11.5,16.1667 11.5,14.8333 11.5,13.5C 12.4767,10.7131 12.81,7.7131 12.5,4.5 Z"/></g>
<g><path style="opacity:1" fill="#ca9158" d="M 3.5,13.5 C 3.83333,13.5 4.16667,13.5 4.5,13.5C 4.5,14.8333 4.5,16.1667 4.5,17.5C 4.16667,17.5 3.83333,17.5 3.5,17.5C 2.5,17.5 1.5,17.5 0.5,17.5C 0.0882357,15.0274 1.08824,13.6941 3.5,13.5 Z"/></g>
<g><path style="opacity:1" fill="#a39f9a" d="M 11.5,13.5 C 11.5,14.8333 11.5,16.1667 11.5,17.5C 9.16667,21.5 6.83333,21.5 4.5,17.5C 4.5,16.1667 4.5,14.8333 4.5,13.5C 6.83333,10.8333 9.16667,10.8333 11.5,13.5 Z"/></g>
<g><path style="opacity:1" fill="#db9a58" d="M 0.5,20.5 C 2.97323,20.9473 3.13989,21.9473 1,23.5C 0.517215,22.552 0.350549,21.552 0.5,20.5 Z"/></g>
<g><path style="opacity:1" fill="#f2ecec" d="M 3.5,17.5 C 3.83333,17.5 4.16667,17.5 4.5,17.5C 6.83333,21.5 9.16667,21.5 11.5,17.5C 12.4767,20.2869 12.81,23.2869 12.5,26.5C 9.5,26.5 6.5,26.5 3.5,26.5C 3.5,23.5 3.5,20.5 3.5,17.5 Z"/></g>
<g><path style="opacity:0.984" fill="#e09d5d" d="M 3.5,26.5 C 6.5,26.5 9.5,26.5 12.5,26.5C 12.8333,26.5 13.1667,26.5 13.5,26.5C 14.5,26.5 15.5,26.5 16.5,26.5C 20.1667,26.5 23.8333,26.5 27.5,26.5C 25.4294,27.8086 22.9294,28.4752 20,28.5C 14.5028,28.9443 9.00276,29.2777 3.5,29.5C 3.5,28.5 3.5,27.5 3.5,26.5 Z"/></g>
<g><path style="opacity:0.765" fill="#7d553b" d="M 15.5,2.5 C 15.5,2.16667 15.5,1.83333 15.5,1.5C 19.8333,1.5 24.1667,1.5 28.5,1.5C 28.334,6.84372 28.5006,12.1771 29,17.5C 29.7083,18.3805 30.5416,19.0472 31.5,19.5C 31.5,20.5 31.5,21.5 31.5,22.5C 28.9791,24.0304 27.9791,26.3637 28.5,29.5C 23.4889,29.3341 18.4889,29.5007 13.5,30C 12.944,30.3826 12.6107,30.8826 12.5,31.5C 9.5,31.5 6.5,31.5 3.5,31.5C 3.5,31.1667 3.5,30.8333 3.5,30.5C 3.5,30.1667 3.5,29.8333 3.5,29.5C 9.00276,29.2777 14.5028,28.9443 20,28.5C 22.9294,28.4752 25.4294,27.8086 27.5,26.5C 27.5,19.1667 27.5,11.8333 27.5,4.5C 23.9707,2.57723 19.9707,1.91057 15.5,2.5 Z"/></g>
</svg>
